<?xml version="1.0" standalone="no"?>
<!DOCTYPE svg PUBLIC "-//W3C//DTD SVG 20010904//EN"
 "http://www.w3.org/TR/2001/REC-SVG-20010904/DTD/svg10.dtd">
<svg version="1.0" xmlns="http://www.w3.org/2000/svg"
 width="1495.000000pt" height="1322.000000pt" viewBox="0 0 1495.000000 1322.000000"
 preserveAspectRatio="xMidYMid meet">
<metadata>
Created by potrace 1.16, written by Peter Selinger 2001-2019
</metadata>
<g transform="translate(0.000000,1322.000000) scale(0.100000,-0.100000)"
fill="#000000" stroke="none">
<path d="M6815 12593 c10 -16 29 -44 42 -63 34 -50 82 -182 99 -268 51 -265
-35 -559 -216 -742 -101 -103 -235 -186 -362 -226 l-58 -18 0 -388 c0 -425 0
-423 -60 -492 -32 -36 -33 -39 -27 -103 12 -125 89 -203 202 -203 72 0 132 33
170 95 l30 48 3 396 3 396 74 23 c217 70 427 271 513 492 61 155 74 368 33
525 -56 216 -208 417 -397 526 -64 36 -71 36 -49 2z"/>
<path d="M6030 12550 c-155 -33 -303 -177 -344 -335 -42 -158 1 -313 118 -431
58 -57 137 -105 198 -120 l28 -6 -15 35 c-76 181 -1 418 167 530 85 56 166 79
265 75 57 -2 83 1 83 8 0 7 -19 38 -43 70 -49 66 -126 124 -206 155 -62 23
-185 32 -251 19z"/>
<path d="M3070 11078 c0 -3 22 -41 48 -85 147 -244 160 -540 37 -803 l-39 -81
277 -277 c152 -152 281 -290 286 -305 26 -69 4 -175 -45 -218 -33 -29 -82 -49
-119 -49 -19 0 -35 -3 -35 -8 0 -18 218 -222 252 -237 81 -33 147 -14 221 62
41 42 48 57 54 101 11 96 1 109 -301 411 l-275 275 24 40 c13 23 38 84 56 136
29 84 33 110 37 235 3 118 1 154 -17 228 -56 235 -201 429 -413 551 -27 16
-48 26 -48 24z"/>
<path d="M10545 11054 c56 -85 87 -148 117 -234 31 -92 32 -101 33 -255 0
-186 -11 -240 -79 -380 -55 -114 -108 -184 -193 -258 -264 -227 -615 -280
-919 -138 l-88 42 -268 -268 c-187 -187 -271 -278 -279 -302 -15 -45 -5 -124
22 -167 47 -77 156 -113 241 -80 33 12 105 78 316 289 l273 273 77 -38 c182
-89 440 -106 637 -41 129 41 255 123 357 231 381 404 264 1083 -231 1337 l-35
18 19 -29z"/>
<path d="M2249 10987 c-144 -50 -251 -164 -294 -311 -23 -79 -16 -209 15 -288
26 -66 98 -158 155 -200 40 -28 156 -80 163 -73 2 2 -3 25 -12 52 -54 166 -14
326 113 454 101 100 227 149 353 135 34 -4 58 -3 58 2 0 23 -71 111 -124 153
-82 67 -150 91 -266 96 -80 3 -105 0 -161 -20z"/>
<path d="M9707 10986 c-94 -34 -163 -89 -230 -185 -119 -172 -94 -411 60 -564
58 -58 158 -117 198 -117 l22 0 -18 53 c-39 112 -17 270 51 377 88 137 265
223 423 205 l58 -6 -17 32 c-24 47 -111 137 -162 166 -113 67 -263 82 -385 39z"/>
<path d="M2741 9788 c-192 -92 -415 -102 -628 -29 -46 16 -83 25 -83 21 0 -12
142 -145 190 -177 95 -65 210 -112 320 -133 84 -16 267 -13 351 6 76 17 219
71 219 83 0 11 -265 271 -275 270 -6 0 -48 -19 -94 -41z"/>
<path d="M5842 9486 c-221 -120 -427 -367 -598 -721 l-54 -110 32 -13 c49 -21
268 -82 313 -88 l40 -5 35 67 c54 104 181 291 254 374 l66 75 0 228 c0 175 -3
227 -12 227 -7 0 -41 -16 -76 -34z"/>
<path d="M6320 9009 l0 -512 88 7 c48 4 119 13 157 19 l70 12 3 363 c1 199 4
362 6 362 3 0 16 -4 31 -10 l25 -10 -21 29 c-60 81 -296 251 -349 251 -7 0
-10 -166 -10 -511z"/>
<path d="M5030 9332 c-154 -70 -290 -144 -417 -229 -62 -41 -113 -77 -113 -79
0 -13 305 -204 326 -204 6 0 27 39 49 86 45 101 159 303 219 389 55 79 59 85
49 85 -4 -1 -55 -22 -113 -48z"/>
<path d="M7107 9368 c4 -7 26 -40 49 -73 60 -86 174 -288 219 -389 22 -47 43
-86 48 -86 18 0 137 72 137 83 0 7 -31 58 -68 114 l-69 101 51 -20 c28 -10 93
-39 143 -63 90 -42 93 -43 114 -26 22 17 21 18 -94 94 -123 83 -310 184 -445
241 -94 40 -96 41 -85 24z"/>
<path d="M8350 9020 c472 -481 766 -1070 872 -1750 19 -127 22 -183 22 -445 0
-262 -3 -318 -22 -445 -142 -909 -621 -1663 -1374 -2163 -382 -254 -809 -417
-1278 -488 -136 -21 -191 -24 -445 -24 -254 0 -309 3 -445 24 -440 67 -848
216 -1205 440 -153 97 -155 97 -105 51 226 -210 644 -461 965 -579 566 -209
1148 -253 1750 -131 439 89 909 308 1285 601 115 89 421 392 514 509 241 302
452 708 557 1072 168 579 168 1187 0 1766 -105 363 -321 778 -554 1068 -150
186 -342 376 -512 509 -135 105 -140 102 -25 -15z"/>
<path d="M4105 8663 c-339 -383 -550 -790 -654 -1258 -22 -102 -51 -298 -51
-350 l0 -35 169 0 170 0 11 58 c54 270 152 547 276 779 108 202 308 477 437
602 l45 43 74 -56 c41 -31 80 -56 86 -56 15 0 29 53 15 57 -33 11 -278 162
-365 225 -56 40 -108 76 -114 81 -9 5 -42 -26 -99 -90z"/>
<path d="M7933 8673 c-67 -49 -179 -119 -248 -158 -104 -58 -125 -73 -121 -90
2 -11 24 -99 49 -195 52 -197 86 -369 116 -575 24 -167 51 -461 51 -562 l0
-73 150 0 150 0 0 48 c0 188 -91 714 -174 1004 l-33 117 81 43 c88 47 341 211
351 228 8 13 -80 124 -180 227 l-70 73 -122 -87z"/>
<path d="M5022 8163 c-83 -307 -162 -843 -162 -1100 l0 -43 163 0 163 0 17
160 c24 224 61 433 116 650 41 164 48 185 66 184 11 -1 72 -17 135 -37 100
-30 274 -72 378 -91 l32 -5 0 109 0 109 -57 6 c-272 29 -481 70 -685 135 -69
22 -128 40 -130 40 -2 0 -18 -53 -36 -117z"/>
<path d="M7058 8240 c-188 -62 -409 -106 -680 -135 l-58 -6 0 -540 0 -540 158
3 157 3 3 411 2 411 88 7 c147 12 507 79 543 102 7 4 -19 120 -57 257 -10 37
-23 67 -29 66 -5 -1 -63 -18 -127 -39z"/>
<path d="M9969 7581 l-29 -29 0 -551 0 -551 105 0 105 0 0 551 0 551 -29 29
c-24 24 -38 29 -76 29 -38 0 -52 -5 -76 -29z"/>
<path d="M1548 7298 c41 -60 86 -153 108 -220 l18 -58 103 0 c57 0 103 3 103
6 0 16 -77 108 -143 171 -67 64 -183 143 -208 143 -5 0 3 -19 19 -42z"/>
<path d="M731 7264 c-83 -22 -148 -62 -210 -130 -68 -74 -107 -147 -122 -229
-39 -212 84 -427 290 -506 29 -11 55 -18 57 -17 1 2 -6 28 -16 58 -27 76 -26
192 1 272 68 204 265 332 475 311 l57 -6 -19 34 c-10 19 -46 61 -79 95 -116
117 -276 161 -434 118z"/>
<path d="M11725 7151 c-71 -32 -192 -136 -225 -193 -16 -29 -30 -56 -30 -60 0
-5 60 -8 133 -8 131 1 132 1 171 30 37 28 46 30 123 30 l83 0 0 65 c0 63 -2
67 -41 110 -41 45 -42 45 -108 45 -42 0 -80 -7 -106 -19z"/>
<path d="M12170 7146 c5 -14 12 -70 16 -124 l6 -97 47 -48 46 -48 3 -94 4 -95
-305 0 c-296 0 -305 1 -310 20 -5 18 -14 20 -111 20 l-106 0 0 -95 0 -95 33
-20 c30 -19 51 -20 325 -20 249 0 298 -2 324 -16 25 -13 56 -15 157 -12 138 3
173 15 191 64 6 14 10 101 10 193 0 232 -6 251 -118 361 -86 85 -130 114 -191
126 -31 6 -31 6 -21 -20z"/>
<path d="M13245 7151 c-71 -32 -192 -136 -225 -193 -16 -29 -30 -56 -30 -60 0
-5 60 -8 133 -8 131 1 132 1 171 30 37 28 46 30 123 30 l83 0 0 65 c0 63 -2
67 -41 110 -41 45 -42 45 -108 45 -42 0 -80 -7 -106 -19z"/>
<path d="M13690 7146 c5 -14 12 -70 16 -124 l6 -97 47 -48 46 -48 3 -94 4 -95
-305 0 c-296 0 -305 1 -310 20 -5 18 -14 20 -111 20 l-106 0 0 -95 0 -95 33
-20 c30 -19 51 -20 325 -20 249 0 298 -2 324 -16 25 -13 56 -15 157 -12 138 3
173 15 191 64 6 14 10 101 10 193 0 232 -6 251 -118 361 -86 85 -130 114 -191
126 -31 6 -31 6 -21 -20z"/>
<path d="M2593 6750 c-31 -56 -52 -78 -96 -99 -42 -20 -58 -21 -433 -21 l-390
0 -18 -57 c-76 -242 -252 -433 -489 -531 -187 -78 -423 -82 -610 -12 -32 12
-61 20 -64 17 -8 -9 85 -104 151 -154 79 -59 200 -117 301 -144 105 -28 298
-30 400 -6 170 41 287 107 411 231 103 103 169 205 206 321 l23 74 396 3 396
3 48 30 c127 78 128 261 2 339 -38 23 -60 29 -131 33 l-85 6 -18 -33z"/>
<path d="M3400 6595 c0 -52 29 -248 51 -350 105 -477 350 -945 674 -1284 l71
-74 27 24 28 24 -84 125 c-258 387 -384 739 -453 1268 l-5 42 380 0 c209 0
382 3 384 8 3 4 2 62 -1 130 l-5 122 -533 0 -534 0 0 -35z"/>
<path d="M4864 6508 c20 -352 76 -715 158 -1018 17 -63 32 -116 34 -118 1 -2
54 13 118 34 87 28 116 41 112 51 -10 26 -55 286 -70 403 -14 107 -30 285 -40
442 l-4 68 377 2 376 3 3 128 3 127 -537 0 -537 0 7 -122z"/>
<path d="M6320 6091 l0 -540 58 -6 c31 -3 101 -12 155 -19 53 -7 100 -10 102
-7 3 2 5 195 5 428 l0 423 364 0 c201 0 367 4 370 8 2 4 8 63 12 130 l7 122
-537 0 -536 0 0 -539z"/>
<path d="M7780 6558 c0 -102 -27 -396 -51 -563 -30 -206 -64 -378 -116 -575
-25 -96 -47 -184 -50 -195 -3 -16 4 -25 32 -38 20 -10 93 -51 162 -93 69 -41
127 -73 130 -70 11 11 65 219 98 381 57 274 84 492 111 877 l6 88 361 2 362 3
12 85 c6 47 12 104 12 128 l1 42 -535 0 -535 0 0 -72z"/>
<path d="M9940 6115 l0 -125 491 0 491 0 29 29 c24 24 29 38 29 76 0 38 -5 52
-29 76 l-29 29 -386 0 c-379 0 -386 0 -386 20 0 19 -7 20 -105 20 l-105 0 0
-125z"/>
<path d="M11495 6210 c31 -60 167 -174 243 -204 36 -14 90 -16 373 -16 l330 0
24 24 c43 44 45 124 4 162 -19 18 -45 19 -328 24 -266 4 -310 7 -338 23 -26
14 -58 17 -178 17 l-146 0 16 -30z"/>
<path d="M13015 6210 c31 -60 167 -174 243 -204 36 -14 90 -16 373 -16 l330 0
24 24 c43 44 45 124 4 162 -19 18 -45 19 -328 24 -266 4 -310 7 -338 23 -26
14 -58 17 -178 17 l-146 0 16 -30z"/>
<path d="M5730 5134 c-137 -21 -303 -60 -429 -100 l-110 -34 16 -38 c96 -230
258 -478 411 -629 69 -67 211 -173 232 -173 5 0 -22 40 -59 90 -37 49 -95 137
-129 194 -59 98 -157 295 -150 301 14 13 243 77 396 110 22 5 22 8 22 150 l0
145 -52 -1 c-29 -1 -96 -7 -148 -15z"/>
<path d="M6320 4641 c0 -343 3 -511 10 -511 37 0 187 96 264 168 l46 43 0 280
0 280 58 -6 c72 -8 239 -34 269 -41 21 -6 27 2 58 67 l34 74 -31 13 c-118 50
-459 126 -624 138 l-84 7 0 -512z"/>
<path d="M4749 4791 c-73 -43 -249 -159 -249 -165 0 -6 218 -149 281 -184 31
-18 63 -32 70 -32 8 0 44 20 81 45 l66 44 -81 165 c-45 91 -86 165 -92 165 -5
0 -40 -17 -76 -38z"/>
<path d="M7376 4746 c-47 -105 -141 -274 -212 -384 -30 -45 -54 -85 -54 -87 0
-8 167 67 288 130 107 56 352 209 352 221 0 13 -305 204 -326 204 -6 0 -27
-38 -48 -84z"/>
<path d="M3735 4137 c-16 -8 -162 -146 -323 -308 l-293 -294 40 -85 c60 -131
75 -203 75 -360 0 -110 -4 -150 -22 -215 -30 -103 -89 -226 -147 -303 -93
-123 -295 -256 -455 -299 -49 -14 -103 -18 -225 -18 -154 1 -163 2 -254 33
-52 18 -96 31 -98 28 -2 -2 25 -33 60 -68 152 -155 345 -243 562 -255 416 -23
779 248 876 654 18 74 20 110 17 228 -4 125 -8 151 -37 235 -18 52 -43 113
-56 136 l-24 40 275 275 c301 301 312 316 301 410 -12 101 -82 167 -184 175
-37 3 -69 -1 -88 -9z"/>
<path d="M9090 4142 c0 -4 71 -79 159 -166 132 -132 162 -157 180 -151 11 3
21 9 21 13 0 18 -279 283 -312 297 -42 17 -48 18 -48 7z"/>
<path d="M10559 3567 c44 -65 97 -179 118 -257 14 -50 18 -102 18 -225 -1
-154 -2 -163 -33 -255 -51 -145 -104 -232 -203 -330 -103 -102 -208 -167 -339
-211 -165 -55 -385 -53 -550 7 -35 13 -66 21 -69 18 -10 -10 127 -138 199
-185 357 -236 854 -160 1125 171 235 287 258 703 55 1011 -75 115 -238 259
-334 295 -16 6 -13 -2 13 -39z"/>
<path d="M2301 3539 c-129 -25 -254 -126 -319 -257 -31 -64 -36 -86 -40 -161
-7 -147 36 -258 139 -356 53 -50 121 -90 188 -110 22 -7 23 -5 17 16 -32 103
-39 156 -29 226 34 237 230 402 466 391 47 -2 77 1 77 7 0 35 -120 161 -189
198 -89 49 -207 66 -310 46z"/>
<path d="M9740 3532 c-220 -58 -369 -285 -332 -506 29 -175 165 -331 324 -371
l26 -7 -20 64 c-15 49 -19 83 -16 154 3 82 8 100 42 168 48 99 114 164 213
213 75 37 80 38 185 38 59 0 108 3 108 6 0 16 -91 128 -128 157 -78 62 -197
103 -296 101 -22 0 -70 -8 -106 -17z"/>
<path d="M6353 3045 l-33 -14 0 -329 0 -328 58 -18 c60 -19 166 -71 217 -105
17 -12 34 -21 38 -21 5 0 7 154 5 343 l-3 344 -30 48 c-52 84 -162 119 -252
80z"/>
<path d="M6800 2066 c0 -3 18 -33 39 -66 247 -382 137 -902 -244 -1155 -158
-105 -273 -139 -470 -139 -144 0 -247 19 -327 60 -16 8 -32 14 -34 11 -9 -8
91 -110 155 -159 151 -114 316 -168 516 -168 151 0 257 24 380 85 220 110 384
312 446 550 28 105 30 298 6 400 -59 240 -205 435 -419 559 -27 16 -48 25 -48
22z"/>
<path d="M5980 1977 c-119 -40 -216 -133 -277 -262 -25 -54 -28 -70 -27 -165
0 -85 4 -116 23 -162 48 -122 149 -222 269 -268 45 -17 52 -18 52 -4 0 8 -4
23 -10 33 -5 10 -14 47 -19 82 -22 136 31 291 134 388 94 89 238 140 352 126
63 -8 65 -1 24 59 -114 166 -331 238 -521 173z"/>
</g>
</svg>
