<svg width="93" height="53" viewBox="0 0 93 53" fill="none" xmlns="http://www.w3.org/2000/svg">
<g clip-path="url(#clip0_2_97)">
<path d="M35.2456 8.34482C35.1815 8.41928 35.093 8.47357 34.9926 8.49994C34.8921 8.52631 34.7851 8.5234 34.6866 8.49163C34.6566 8.48364 34.6273 8.47399 34.5986 8.46272C34.631 8.15132 34.615 7.83738 34.5511 7.52997C34.5259 7.79421 34.4542 8.05315 34.3386 8.29703C34.2443 8.21186 34.1671 8.1126 34.1105 8.00367C34.005 7.77827 33.9351 7.54066 33.9028 7.29777C33.7467 6.47024 33.5927 5.60934 33.8474 4.80062C34.2204 3.61924 35.3969 2.76995 35.8882 1.62374L36.1303 1.42795C36.5447 2.0637 36.563 2.85369 36.3941 3.57459C36.2261 4.29692 35.8875 4.97484 35.6198 5.67143C35.3521 6.36802 35.1516 7.10897 35.2758 7.83788C35.3043 8.0095 35.3479 8.19814 35.2456 8.34482Z" fill="#2F2E41"/>
<path d="M29.8655 18.3411L28.288 24.8418L35.1786 26.8638L34.1653 18.3411H29.8655Z" fill="#FFB6B6"/>
<path d="M78.4901 52.8404H81.6126V39.9433C81.6084 36.6149 80.139 33.4239 77.5267 31.0703C74.9144 28.7168 71.3725 27.3929 67.6781 27.3891H38.6588C34.9644 27.3929 31.4226 28.7168 28.8103 31.0703C26.1979 33.4239 24.7285 36.6149 24.7243 39.9433V52.8404H27.8468V44.0295C27.851 40.6701 29.3341 37.4494 31.9707 35.074C34.6073 32.6986 38.1821 31.3624 41.9109 31.3586H64.4261C68.1548 31.3624 71.7296 32.6986 74.3662 35.074C77.0028 37.4494 78.4859 40.6701 78.4901 44.0295V52.8404Z" fill="#E6E6E6"/>
<path d="M40.5467 46.0933L37.2189 45.1856C37.0025 44.3844 36.8933 43.5627 36.8938 42.7382C36.8954 42.5519 36.9558 42.37 37.068 42.2135C37.1802 42.0571 37.3395 41.9327 37.5273 41.8548C37.7151 41.777 37.9236 41.749 38.1285 41.774C38.3333 41.799 38.526 41.8761 38.684 41.9962C40.4688 43.3755 43.0832 44.1115 44.7704 45.6832C45.4687 46.3437 45.993 47.1374 46.3045 48.0053C46.6161 48.8733 46.7068 49.7933 46.5701 50.6971L47.2985 52.8197C45.6682 52.7137 44.0829 52.2905 42.6516 51.5794C41.2204 50.8682 39.9773 49.8859 39.008 48.7003C38.4715 48.0302 38.0308 47.302 37.6964 46.5328C39.1078 46.3886 40.5467 46.0933 40.5467 46.0933Z" fill="#F2F2F2"/>
<path d="M49.2198 49.5693L50.9171 49.1063C50.9193 49.0982 50.9215 49.0901 50.9236 49.082C50.9706 48.8949 50.9557 48.6996 50.8809 48.5201C50.806 48.3405 50.6745 48.1847 50.5024 48.0718C50.3304 47.9589 50.1254 47.8938 49.9128 47.8847C49.7002 47.8755 49.4892 47.9227 49.306 48.0203C48.5355 48.4327 47.68 48.7877 47.0656 49.3601C46.7094 49.697 46.442 50.1018 46.2831 50.5445C46.1242 50.9872 46.0779 51.4564 46.1477 51.9174L45.7762 53C46.6076 52.9459 47.4162 52.7301 48.1462 52.3674C48.8762 52.0047 49.5102 51.5037 50.0046 50.8989C50.2782 50.5572 50.503 50.1858 50.6736 49.7935C49.9537 49.7199 49.2198 49.5693 49.2198 49.5693Z" fill="#F2F2F2"/>
<path d="M62.9592 17.8778H56.3496C56.2561 17.8779 56.1664 17.9115 56.1004 17.9712C56.0344 18.0308 55.9973 18.1116 55.9974 18.1959V27.6028H63.3122V18.1959C63.3122 18.1541 63.3031 18.1127 63.2854 18.0741C63.2677 18.0355 63.2416 18.0005 63.2089 17.9709C63.1761 17.9414 63.1371 17.918 63.0943 17.902C63.0515 17.886 63.0055 17.8778 62.9592 17.8778ZM59.6766 23.2227C59.4699 23.2218 59.2719 23.1475 59.1258 23.0158C58.9796 22.8841 58.8971 22.7058 58.8961 22.5195V21.4345C58.8964 21.2482 58.9787 21.0696 59.1251 20.9379C59.2714 20.8062 59.4698 20.7323 59.6766 20.7323C59.8834 20.7323 60.0818 20.8062 60.2281 20.9379C60.3745 21.0696 60.4568 21.2482 60.4571 21.4345V22.5195C60.4561 22.7058 60.3736 22.8841 60.2274 23.0158C60.0813 23.1475 59.8833 23.2218 59.6766 23.2227Z" fill="#3F3D56"/>
<path d="M73.9041 3.19724H45.6506C45.4078 3.19758 45.1751 3.28462 45.0035 3.43926C44.8319 3.5939 44.7353 3.80353 44.7349 4.02223V21.1992C44.7351 21.4179 44.8317 21.6276 45.0033 21.7823C45.175 21.937 45.4078 22.024 45.6506 22.0242H73.9041C74.1469 22.024 74.3797 21.937 74.5513 21.7823C74.723 21.6276 74.8196 21.4179 74.8198 21.1992V4.02223C74.8194 3.80353 74.7228 3.5939 74.5512 3.43926C74.3795 3.28462 74.1468 3.19758 73.9041 3.19724Z" fill="#3F3D56"/>
<path d="M73.6683 3.79309H45.8866C45.7567 3.79335 45.6321 3.84004 45.5403 3.92292C45.4485 4.00581 45.3969 4.11812 45.3969 4.23522V20.9864C45.3971 21.1034 45.4488 21.2155 45.5406 21.2982C45.6324 21.3809 45.7568 21.4274 45.8866 21.4276H73.6683C73.7981 21.4274 73.9225 21.3809 74.0143 21.2982C74.1061 21.2155 74.1578 21.1034 74.158 20.9864V4.23522C74.158 4.11812 74.1064 4.00581 74.0146 3.92292C73.9228 3.84004 73.7982 3.79335 73.6683 3.79309Z" fill="white"/>
<path d="M55.9748 27.3019V28.2095C55.9749 28.2565 55.9957 28.3016 56.0326 28.3348C56.0695 28.3681 56.1195 28.3868 56.1717 28.3869H63.138C63.1901 28.3867 63.2401 28.3679 63.2769 28.3347C63.3138 28.3015 63.3347 28.2565 63.3349 28.2095V27.3019H55.9748Z" fill="#3F3D56"/>
<path d="M68.2569 28.7027H51.7283C51.6831 28.7027 51.6384 28.6936 51.5976 28.6761C51.5567 28.6586 51.5207 28.633 51.4922 28.6014C51.4637 28.5697 51.4434 28.5328 51.4328 28.4931C51.4222 28.4535 51.4215 28.4123 51.4308 28.3724L51.6873 27.275C51.7019 27.2136 51.7393 27.1585 51.7935 27.119C51.8476 27.0794 51.9151 27.0577 51.9848 27.0575H68.0005C68.0702 27.0577 68.1377 27.0794 68.1918 27.1189C68.2459 27.1585 68.2834 27.2136 68.298 27.275L68.5544 28.3724C68.5637 28.4123 68.5631 28.4535 68.5524 28.4931C68.5418 28.5328 68.5215 28.5697 68.493 28.6014C68.4645 28.633 68.4285 28.6586 68.3877 28.6761C68.3468 28.6936 68.3021 28.7027 68.2569 28.7027Z" fill="#3F3D56"/>
<path d="M52.5479 27.2551H52.1654C52.1304 27.2551 52.1021 27.2806 52.1021 27.3121V27.4733C52.1021 27.5047 52.1304 27.5302 52.1654 27.5302H52.5479C52.5829 27.5302 52.6112 27.5047 52.6112 27.4733V27.3121C52.6112 27.2806 52.5829 27.2551 52.5479 27.2551Z" fill="#E6E6E6"/>
<path d="M53.566 27.2551H53.1835C53.1486 27.2551 53.1202 27.2806 53.1202 27.3121V27.4733C53.1202 27.5047 53.1486 27.5302 53.1835 27.5302H53.566C53.601 27.5302 53.6293 27.5047 53.6293 27.4733V27.3121C53.6293 27.2806 53.601 27.2551 53.566 27.2551Z" fill="#E6E6E6"/>
<path d="M54.5842 27.2551H54.2016C54.1667 27.2551 54.1384 27.2806 54.1384 27.3121V27.4733C54.1384 27.5047 54.1667 27.5302 54.2016 27.5302H54.5842C54.6191 27.5302 54.6474 27.5047 54.6474 27.4733V27.3121C54.6474 27.2806 54.6191 27.2551 54.5842 27.2551Z" fill="#E6E6E6"/>
<path d="M55.6023 27.2551H55.2198C55.1848 27.2551 55.1565 27.2806 55.1565 27.3121V27.4733C55.1565 27.5047 55.1848 27.5302 55.2198 27.5302H55.6023C55.6372 27.5302 55.6656 27.5047 55.6656 27.4733V27.3121C55.6656 27.2806 55.6372 27.2551 55.6023 27.2551Z" fill="#E6E6E6"/>
<path d="M56.6204 27.2551H56.2379C56.2029 27.2551 56.1746 27.2806 56.1746 27.3121V27.4733C56.1746 27.5047 56.2029 27.5302 56.2379 27.5302H56.6204C56.6554 27.5302 56.6837 27.5047 56.6837 27.4733V27.3121C56.6837 27.2806 56.6554 27.2551 56.6204 27.2551Z" fill="#E6E6E6"/>
<path d="M57.6385 27.2551H57.256C57.2211 27.2551 57.1927 27.2806 57.1927 27.3121V27.4733C57.1927 27.5047 57.2211 27.5302 57.256 27.5302H57.6385C57.6735 27.5302 57.7018 27.5047 57.7018 27.4733V27.3121C57.7018 27.2806 57.6735 27.2551 57.6385 27.2551Z" fill="#E6E6E6"/>
<path d="M58.6567 27.2551H58.2741C58.2392 27.2551 58.2109 27.2806 58.2109 27.3121V27.4733C58.2109 27.5047 58.2392 27.5302 58.2741 27.5302H58.6567C58.6916 27.5302 58.7199 27.5047 58.7199 27.4733V27.3121C58.7199 27.2806 58.6916 27.2551 58.6567 27.2551Z" fill="#E6E6E6"/>
<path d="M59.6748 27.2551H59.2923C59.2573 27.2551 59.229 27.2806 59.229 27.3121V27.4733C59.229 27.5047 59.2573 27.5302 59.2923 27.5302H59.6748C59.7097 27.5302 59.7381 27.5047 59.7381 27.4733V27.3121C59.7381 27.2806 59.7097 27.2551 59.6748 27.2551Z" fill="#E6E6E6"/>
<path d="M60.6929 27.2551H60.3104C60.2755 27.2551 60.2471 27.2806 60.2471 27.3121V27.4733C60.2471 27.5047 60.2755 27.5302 60.3104 27.5302H60.6929C60.7279 27.5302 60.7562 27.5047 60.7562 27.4733V27.3121C60.7562 27.2806 60.7279 27.2551 60.6929 27.2551Z" fill="#E6E6E6"/>
<path d="M61.7111 27.2551H61.3285C61.2936 27.2551 61.2653 27.2806 61.2653 27.3121V27.4733C61.2653 27.5047 61.2936 27.5302 61.3285 27.5302H61.7111C61.746 27.5302 61.7743 27.5047 61.7743 27.4733V27.3121C61.7743 27.2806 61.746 27.2551 61.7111 27.2551Z" fill="#E6E6E6"/>
<path d="M62.7292 27.2551H62.3466C62.3117 27.2551 62.2834 27.2806 62.2834 27.3121V27.4733C62.2834 27.5047 62.3117 27.5302 62.3466 27.5302H62.7292C62.7641 27.5302 62.7924 27.5047 62.7924 27.4733V27.3121C62.7924 27.2806 62.7641 27.2551 62.7292 27.2551Z" fill="#E6E6E6"/>
<path d="M63.7473 27.2551H63.3648C63.3298 27.2551 63.3015 27.2806 63.3015 27.3121V27.4733C63.3015 27.5047 63.3298 27.5302 63.3648 27.5302H63.7473C63.7823 27.5302 63.8106 27.5047 63.8106 27.4733V27.3121C63.8106 27.2806 63.7823 27.2551 63.7473 27.2551Z" fill="#E6E6E6"/>
<path d="M64.7654 27.2551H64.3829C64.348 27.2551 64.3196 27.2806 64.3196 27.3121V27.4733C64.3196 27.5047 64.348 27.5302 64.3829 27.5302H64.7654C64.8004 27.5302 64.8287 27.5047 64.8287 27.4733V27.3121C64.8287 27.2806 64.8004 27.2551 64.7654 27.2551Z" fill="#E6E6E6"/>
<path d="M65.7836 27.2551H65.401C65.3661 27.2551 65.3378 27.2806 65.3378 27.3121V27.4733C65.3378 27.5047 65.3661 27.5302 65.401 27.5302H65.7836C65.8185 27.5302 65.8468 27.5047 65.8468 27.4733V27.3121C65.8468 27.2806 65.8185 27.2551 65.7836 27.2551Z" fill="#E6E6E6"/>
<path d="M66.8017 27.2551H66.4192C66.3842 27.2551 66.3559 27.2806 66.3559 27.3121V27.4733C66.3559 27.5047 66.3842 27.5302 66.4192 27.5302H66.8017C66.8366 27.5302 66.865 27.5047 66.865 27.4733V27.3121C66.865 27.2806 66.8366 27.2551 66.8017 27.2551Z" fill="#E6E6E6"/>
<path d="M67.8198 27.2551H67.4373C67.4023 27.2551 67.374 27.2806 67.374 27.3121V27.4733C67.374 27.5047 67.4023 27.5302 67.4373 27.5302H67.8198C67.8548 27.5302 67.8831 27.5047 67.8831 27.4733V27.3121C67.8831 27.2806 67.8548 27.2551 67.8198 27.2551Z" fill="#E6E6E6"/>
<path d="M52.5359 27.7137H52.1534C52.1184 27.7137 52.0901 27.7392 52.0901 27.7707V27.9319C52.0901 27.9634 52.1184 27.9889 52.1534 27.9889H52.5359C52.5708 27.9889 52.5992 27.9634 52.5992 27.9319V27.7707C52.5992 27.7392 52.5708 27.7137 52.5359 27.7137Z" fill="#E6E6E6"/>
<path d="M53.554 27.7137H53.1715C53.1365 27.7137 53.1082 27.7392 53.1082 27.7707V27.9319C53.1082 27.9634 53.1365 27.9889 53.1715 27.9889H53.554C53.589 27.9889 53.6173 27.9634 53.6173 27.9319V27.7707C53.6173 27.7392 53.589 27.7137 53.554 27.7137Z" fill="#E6E6E6"/>
<path d="M54.5721 27.7137H54.1896C54.1547 27.7137 54.1263 27.7392 54.1263 27.7707V27.9319C54.1263 27.9634 54.1547 27.9889 54.1896 27.9889H54.5721C54.6071 27.9889 54.6354 27.9634 54.6354 27.9319V27.7707C54.6354 27.7392 54.6071 27.7137 54.5721 27.7137Z" fill="#E6E6E6"/>
<path d="M55.5903 27.7137H55.2077C55.1728 27.7137 55.1445 27.7392 55.1445 27.7707V27.9319C55.1445 27.9634 55.1728 27.9889 55.2077 27.9889H55.5903C55.6252 27.9889 55.6535 27.9634 55.6535 27.9319V27.7707C55.6535 27.7392 55.6252 27.7137 55.5903 27.7137Z" fill="#E6E6E6"/>
<path d="M56.6084 27.7137H56.2259C56.1909 27.7137 56.1626 27.7392 56.1626 27.7707V27.9319C56.1626 27.9634 56.1909 27.9889 56.2259 27.9889H56.6084C56.6433 27.9889 56.6717 27.9634 56.6717 27.9319V27.7707C56.6717 27.7392 56.6433 27.7137 56.6084 27.7137Z" fill="#E6E6E6"/>
<path d="M57.6265 27.7137H57.244C57.209 27.7137 57.1807 27.7392 57.1807 27.7707V27.9319C57.1807 27.9634 57.209 27.9889 57.244 27.9889H57.6265C57.6615 27.9889 57.6898 27.9634 57.6898 27.9319V27.7707C57.6898 27.7392 57.6615 27.7137 57.6265 27.7137Z" fill="#E6E6E6"/>
<path d="M58.6447 27.7137H58.2621C58.2272 27.7137 58.1989 27.7392 58.1989 27.7707V27.9319C58.1989 27.9634 58.2272 27.9889 58.2621 27.9889H58.6447C58.6796 27.9889 58.7079 27.9634 58.7079 27.9319V27.7707C58.7079 27.7392 58.6796 27.7137 58.6447 27.7137Z" fill="#E6E6E6"/>
<path d="M59.6628 27.7137H59.2802C59.2453 27.7137 59.217 27.7392 59.217 27.7707V27.9319C59.217 27.9634 59.2453 27.9889 59.2802 27.9889H59.6628C59.6977 27.9889 59.726 27.9634 59.726 27.9319V27.7707C59.726 27.7392 59.6977 27.7137 59.6628 27.7137Z" fill="#E6E6E6"/>
<path d="M60.6809 27.7137H60.2984C60.2634 27.7137 60.2351 27.7392 60.2351 27.7707V27.9319C60.2351 27.9634 60.2634 27.9889 60.2984 27.9889H60.6809C60.7158 27.9889 60.7442 27.9634 60.7442 27.9319V27.7707C60.7442 27.7392 60.7158 27.7137 60.6809 27.7137Z" fill="#E6E6E6"/>
<path d="M61.699 27.7137H61.3165C61.2816 27.7137 61.2532 27.7392 61.2532 27.7707V27.9319C61.2532 27.9634 61.2816 27.9889 61.3165 27.9889H61.699C61.734 27.9889 61.7623 27.9634 61.7623 27.9319V27.7707C61.7623 27.7392 61.734 27.7137 61.699 27.7137Z" fill="#E6E6E6"/>
<path d="M62.7172 27.7137H62.3346C62.2997 27.7137 62.2714 27.7392 62.2714 27.7707V27.9319C62.2714 27.9634 62.2997 27.9889 62.3346 27.9889H62.7172C62.7521 27.9889 62.7804 27.9634 62.7804 27.9319V27.7707C62.7804 27.7392 62.7521 27.7137 62.7172 27.7137Z" fill="#E6E6E6"/>
<path d="M63.7353 27.7137H63.3528C63.3178 27.7137 63.2895 27.7392 63.2895 27.7707V27.9319C63.2895 27.9634 63.3178 27.9889 63.3528 27.9889H63.7353C63.7702 27.9889 63.7986 27.9634 63.7986 27.9319V27.7707C63.7986 27.7392 63.7702 27.7137 63.7353 27.7137Z" fill="#E6E6E6"/>
<path d="M64.7534 27.7137H64.3709C64.3359 27.7137 64.3076 27.7392 64.3076 27.7707V27.9319C64.3076 27.9634 64.3359 27.9889 64.3709 27.9889H64.7534C64.7884 27.9889 64.8167 27.9634 64.8167 27.9319V27.7707C64.8167 27.7392 64.7884 27.7137 64.7534 27.7137Z" fill="#E6E6E6"/>
<path d="M65.7715 27.7137H65.389C65.3541 27.7137 65.3257 27.7392 65.3257 27.7707V27.9319C65.3257 27.9634 65.3541 27.9889 65.389 27.9889H65.7715C65.8065 27.9889 65.8348 27.9634 65.8348 27.9319V27.7707C65.8348 27.7392 65.8065 27.7137 65.7715 27.7137Z" fill="#E6E6E6"/>
<path d="M66.7897 27.7137H66.4071C66.3722 27.7137 66.3439 27.7392 66.3439 27.7707V27.9319C66.3439 27.9634 66.3722 27.9889 66.4071 27.9889H66.7897C66.8246 27.9889 66.8529 27.9634 66.8529 27.9319V27.7707C66.8529 27.7392 66.8246 27.7137 66.7897 27.7137Z" fill="#E6E6E6"/>
<path d="M67.8078 27.7137H67.4253C67.3903 27.7137 67.362 27.7392 67.362 27.7707V27.9319C67.362 27.9634 67.3903 27.9889 67.4253 27.9889H67.8078C67.8427 27.9889 67.8711 27.9634 67.8711 27.9319V27.7707C67.8711 27.7392 67.8427 27.7137 67.8078 27.7137Z" fill="#E6E6E6"/>
<path d="M60.9864 28.2641H57.0404C57.0054 28.2641 56.9771 28.2896 56.9771 28.3211V28.4823C56.9771 28.5137 57.0054 28.5392 57.0404 28.5392H60.9864C61.0213 28.5392 61.0496 28.5137 61.0496 28.4823V28.3211C61.0496 28.2896 61.0213 28.2641 60.9864 28.2641Z" fill="#E6E6E6"/>
<path d="M69.5259 7.99823V16.8151C69.5258 17.4056 69.2654 17.9718 68.802 18.3893C68.3386 18.8069 67.7101 19.0415 67.0547 19.0415H54.8062C54.324 19.0416 53.8523 18.9147 53.4492 18.6764C53.046 18.438 52.729 18.0987 52.5372 17.7001C52.4729 17.5684 52.4238 17.4311 52.3907 17.2903C52.6511 17.3811 52.928 17.4274 53.2071 17.4269H65.4556C66.0595 17.4261 66.6385 17.2097 67.0656 16.8249C67.4926 16.4402 67.7329 15.9186 67.7337 15.3744V6.55754C67.7343 6.30602 67.6828 6.0566 67.5821 5.82202C67.7383 5.85184 67.8908 5.89605 68.037 5.95395C68.4794 6.12678 68.856 6.41238 69.1206 6.77559C69.3851 7.13881 69.526 7.56379 69.5259 7.99823Z" fill="#F2F2F2"/>
<path d="M23.8305 43.0773L22.6156 43.7551L19.0366 39.7914L20.8295 38.7914L23.8305 43.0773Z" fill="#FFB6B6"/>
<path d="M24.8793 44.493L23.902 44.8861L23.3157 44.125L23.2809 45.1359L20.689 46.1783C20.5647 46.2283 20.426 46.2412 20.2931 46.2151C20.1601 46.189 20.0399 46.1253 19.95 46.0334C19.8601 45.9414 19.8051 45.8259 19.7932 45.7038C19.7813 45.5817 19.813 45.4593 19.8838 45.3546L21.3154 43.2343L20.899 42.3939L23.1341 41.6354L24.8793 44.493Z" fill="#2F2E41"/>
<path d="M20.4273 42.3148L22.4791 40.5234C20.9547 37.1343 20.8329 35.0336 18.7195 30.9347C23.7336 31.8586 27.3184 31.8025 31.4651 30.9741C32.869 30.698 36.4912 28.1772 36.1934 26.8847C36.1795 26.8243 36.163 26.7644 36.144 26.7051C35.6989 25.3378 36.0124 23.244 35.0489 21.7268C33.2665 21.1213 30.5584 23.1658 28.4401 24.412C27.4186 25.0129 28.1663 25.8318 27.4034 26.0465L24.4787 26.9018L17.3032 25.8577C16.9565 25.8104 16.6027 25.8253 16.2624 25.9017C15.922 25.9781 15.6018 26.1144 15.3202 26.3028C15.0386 26.4912 14.8012 26.7279 14.6217 26.9994C14.4421 27.2708 14.3239 27.5716 14.274 27.8844C14.2619 27.9546 14.2531 28.0252 14.2476 28.0961C14.5778 29.7427 14.9219 31.346 15.2925 32.868C15.4121 33.3593 15.2102 34.3012 15.6599 34.3152C16.1097 34.3292 15.9285 35.3034 16.0686 35.7796C16.931 38.7116 17.4763 40.1305 20.4273 42.3148Z" fill="#2F2E41"/>
<path d="M16.5001 50.1724L15.2344 49.5772L17.2369 44.798L19.1049 45.6764L16.5001 50.1724Z" fill="#FFB6B6"/>
<path d="M16.2891 46.6044L18.3186 47.8633C20.8059 44.6224 22.421 40.2916 23.6237 35.4458C28.3068 33.6053 32.4046 31.4996 35.2601 28.6752C35.729 28.2017 35.9749 27.5822 35.9457 26.9482C35.9164 26.3141 35.6143 25.7152 35.1034 25.2784C35.0534 25.2362 35.0018 25.1957 34.9484 25.1571C33.7115 24.2695 30.9646 24.7802 29.2088 24.0383L26.0723 27.9494L26.4328 28.8603L25.3417 29.3389L24.4205 29.7429L23.3659 30.2054L19.9088 31.7217C19.5953 31.8628 19.316 32.0585 19.087 32.2974C18.8579 32.5362 18.6836 32.8136 18.5741 33.1135C18.4646 33.4134 18.4221 33.7298 18.449 34.0446C18.4759 34.3593 18.5717 34.6662 18.731 34.9474C18.7659 35.0111 18.8038 35.0733 18.8447 35.1342L17.5607 40.8969C17.5607 40.8969 17.914 41.9002 17.3581 41.8063C16.8022 41.7124 17.1052 42.9417 17.1052 42.9417L16.2891 46.6044Z" fill="#2F2E41"/>
<path d="M15.7336 52.8063L14.7848 52.3602L15.083 51.4736L14.1817 52.0766L11.6654 50.8934C11.5448 50.8367 11.4474 50.7468 11.3876 50.6367C11.3277 50.5266 11.3085 50.4022 11.3327 50.2815C11.3569 50.1609 11.4233 50.0504 11.5221 49.9662C11.621 49.8819 11.7471 49.8284 11.8821 49.8133L14.6159 49.5078L15.0886 48.692L17.1363 49.7995L15.7336 52.8063Z" fill="#2F2E41"/>
<path d="M43.3973 27.7517L41.917 24.5287L40.7507 25.1125L41.4551 28.3911C41.3845 28.5988 41.3797 28.8201 41.4411 29.0301C41.5025 29.2402 41.6278 29.4306 41.8027 29.5801C41.9777 29.7295 42.1955 29.832 42.4316 29.8761C42.6676 29.9201 42.9127 29.9039 43.1391 29.8294C43.3656 29.7549 43.5645 29.6249 43.7134 29.4541C43.8624 29.2833 43.9555 29.0784 43.9823 28.8626C44.0092 28.6467 43.9686 28.4284 43.8652 28.2321C43.7619 28.0359 43.5998 27.8695 43.3973 27.7517Z" fill="#FFB6B6"/>
<path d="M18.5577 2.2657L20.8101 5.10266L21.7992 4.29602L20.2887 1.2465C20.3051 1.02979 20.2542 0.813244 20.1415 0.621198C20.0289 0.429151 19.859 0.269221 19.651 0.159386C19.443 0.0495522 19.2051 -0.00583153 18.9641 -0.000538152C18.7231 0.00475523 18.4884 0.0705158 18.2866 0.18935C18.0848 0.308185 17.9238 0.475382 17.8217 0.672145C17.7195 0.868909 17.6804 1.08744 17.7085 1.30316C17.7367 1.51889 17.8311 1.72326 17.9811 1.8933C18.1311 2.06334 18.3308 2.19231 18.5577 2.2657H18.5577Z" fill="#FFB6B6"/>
<path d="M28.7288 20.2467C27.2679 22.2883 32.62 26.7364 35.4377 25.6962C35.9311 25.5141 37.6283 24.9125 36.4682 24.0785C35.3081 23.2445 36.6027 24.1779 36.6333 23.6349C36.6537 23.272 36.3418 22.4757 36.6673 22.5099C36.9927 22.544 37.1795 21.696 36.4707 21.4799C36.2243 21.4007 36.008 21.2597 35.8473 21.0736C35.6867 20.8875 35.5882 20.6639 35.5636 20.4292C35.4958 18.1915 36.337 15.8553 36.337 15.8553L39.7707 23.7633C39.7707 23.7633 39.7454 25.1314 40.1832 24.7133C40.6211 24.2952 40.5893 25.6484 40.5893 25.6484C40.5893 25.6484 41.2404 26.0578 40.866 26.2856C40.4915 26.5135 41.2691 27.214 41.2691 27.214L43.0833 27.0972C43.0833 27.0972 43.0549 25.883 42.7451 25.6145C42.4353 25.346 42.5875 24.9235 42.5875 24.9235C42.5875 24.9235 41.9489 24.3883 42.3217 23.758C42.6945 23.1277 39.6067 11.8541 39.6067 11.8541C39.483 11.3117 39.1953 10.8107 38.7752 10.4064C38.3552 10.0022 37.8193 9.7104 37.2268 9.56341L35.2673 9.07735L34.9193 7.83359H32.1603L31.6797 8.65084L27.2738 8.30059C27.2738 8.30059 22.9142 4.72691 23.127 4.44786C23.3399 4.16882 22.6641 3.51553 22.6641 3.51553C22.6641 3.51553 22.0869 3.34535 22.4126 3.25448C22.7383 3.16362 22.1227 2.95354 22.1227 2.95354C22.1227 2.95354 21.5525 2.81857 21.8214 2.64085C22.0903 2.46312 20.9241 2.34637 20.9241 2.34637L19.4109 3.45871L19.7167 3.92593C19.7167 3.92593 19.5302 4.56214 19.7736 4.32988C20.0169 4.09762 20.0628 4.77165 20.0628 4.77165C20.0628 4.77165 20.187 5.50974 20.9241 5.73211C21.6611 5.95448 22.2199 8.0671 22.2199 8.0671L28.44 12.7371C27.4927 13.7167 27.7182 14.7412 28.5574 15.7891L28.7288 20.2467Z" fill="#6C63FF"/>
<path d="M33.4776 7.00722C35.1277 7.00722 36.4653 5.80209 36.4653 4.31549C36.4653 2.82888 35.1277 1.62375 33.4776 1.62375C31.8275 1.62375 30.4899 2.82888 30.4899 4.31549C30.4899 5.80209 31.8275 7.00722 33.4776 7.00722Z" fill="#FFB6B6"/>
<path d="M36.0856 3.51389C36.0092 3.53374 34.887 3.66567 34.401 3.74739C33.9241 3.82795 33.8412 3.28039 33.4512 3.38313C33.4514 3.38074 33.4509 3.37833 33.4499 3.37613C33.3894 3.08601 33.2861 2.80448 33.1427 2.53904C33.1948 2.79327 33.2022 3.05327 33.1648 3.30958C33.1646 3.31625 33.1637 3.3229 33.1622 3.32943C33.1609 3.34111 33.1583 3.35161 33.157 3.36329C32.7449 3.19984 32.4832 3.34577 32.1981 3.39714C31.8793 3.45435 31.6305 3.58044 31.8093 4.56464C32.176 6.58907 34.0835 7.31175 33.7531 8.65086C33.6883 8.91588 33.525 9.24745 33.3203 9.33034C33.2598 9.04022 33.1565 8.75869 33.0132 8.49325C33.0652 8.74748 33.0726 9.00749 33.0352 9.26379C32.7177 8.95441 32.4883 7.87331 31.4206 7.01637C31.1575 6.80622 29.8396 5.55934 29.6815 5.26513C29.73 5.50036 29.7535 5.73923 29.7515 5.97847C29.7518 6.1386 29.7397 6.29854 29.7152 6.45714C29.7152 6.46736 29.7139 6.47754 29.7113 6.4875C29.71 6.50618 29.7061 6.52252 29.7035 6.54004C29.7009 6.55988 29.6971 6.57856 29.6932 6.59841C29.2617 6.54237 28.8794 6.47465 28.6992 6.31588C27.8232 5.54766 28.8923 4.05094 29.4768 2.69665C30.3126 0.757442 32.7397 0.499427 32.9756 0.478412C34.0149 0.383845 35.7708 0.584654 36.3448 1.6459C36.7465 2.3896 36.49 3.40882 36.0856 3.51389Z" fill="#2F2E41"/>
<path d="M29.7858 3.95161L31.95 0.918437C31.4314 0.64716 30.8408 0.507578 30.2411 0.51453C29.9422 0.520126 29.648 0.582399 29.3776 0.697291C29.1072 0.812182 28.8668 0.977114 28.6719 1.18134C28.2299 1.67626 28.154 2.37589 28.3196 2.99336C28.3768 3.20662 29.466 2.45627 29.2068 2.80652C28.994 3.08074 28.6461 4.23337 28.5588 4.55776C28.4184 5.07984 28.0323 5.61576 28.3763 6.05455C28.783 6.57344 29.5088 6.83135 30.2133 6.85755C30.9178 6.88374 31.6113 6.70785 32.2808 6.50862L29.7858 3.95161Z" fill="#2F2E41"/>
<path d="M30.6174 3.83197C30.5861 3.83194 30.556 3.82173 30.5324 3.80323C30.5088 3.78473 30.4935 3.75919 30.4892 3.7313C30.4849 3.70341 30.4919 3.67506 30.509 3.65147C30.526 3.62788 30.552 3.61064 30.582 3.60292C30.616 3.55241 30.6021 3.33983 30.5909 3.16807C30.5487 2.52316 30.4782 1.4438 31.6413 0.715199C31.6695 0.697525 31.7044 0.690671 31.7382 0.696145C31.772 0.701619 31.802 0.718972 31.8216 0.744387C31.8413 0.769802 31.8489 0.801197 31.8428 0.831665C31.8367 0.862134 31.8174 0.889181 31.7892 0.906855C30.7455 1.56078 30.8081 2.5198 30.8496 3.15434C30.8733 3.51712 30.8904 3.77918 30.6462 3.82906C30.6367 3.83101 30.6271 3.83198 30.6174 3.83197Z" fill="#6C63FF"/>
<path d="M6.79596e-07 52.7649C-0.000120478 52.8016 0.0159627 52.8369 0.04471 52.863C0.0734573 52.889 0.112514 52.9037 0.153291 52.9038H92.8458C92.8867 52.9038 92.9259 52.8892 92.9548 52.8632C92.9838 52.8371 93 52.8018 93 52.7649C93 52.7281 92.9838 52.6927 92.9548 52.6667C92.9259 52.6406 92.8867 52.626 92.8458 52.626H0.154212C0.134021 52.6259 0.114017 52.6295 0.0953394 52.6364C0.0766622 52.6433 0.0596781 52.6534 0.0453586 52.6663C0.031039 52.6791 0.0196642 52.6943 0.0118824 52.7111C0.00410064 52.7279 6.39376e-05 52.7459 4.63425e-06 52.7641L6.79596e-07 52.7649Z" fill="#CCCCCC"/>
<path d="M57.3463 11.0736H55.3854C55.3334 11.0736 55.2835 11.055 55.2468 11.0219C55.21 10.9887 55.1893 10.9438 55.1893 10.8969C55.1893 10.8501 55.21 10.8052 55.2468 10.772C55.2835 10.7389 55.3334 10.7203 55.3854 10.7203H57.3463C57.3983 10.7203 57.4482 10.7389 57.485 10.772C57.5218 10.8052 57.5424 10.8501 57.5424 10.8969C57.5424 10.9438 57.5218 10.9887 57.485 11.0219C57.4482 11.055 57.3983 11.0736 57.3463 11.0736Z" fill="#6C63FF"/>
<path d="M60.8759 11.0736H58.915C58.8893 11.0736 58.8638 11.069 58.84 11.0602C58.8162 11.0513 58.7946 11.0383 58.7764 11.0219C58.7582 11.0055 58.7437 10.986 58.7339 10.9645C58.724 10.9431 58.7189 10.9201 58.7189 10.8969C58.7189 10.8737 58.724 10.8508 58.7339 10.8293C58.7437 10.8079 58.7582 10.7884 58.7764 10.772C58.7946 10.7556 58.8162 10.7426 58.84 10.7337C58.8638 10.7248 58.8893 10.7203 58.915 10.7203H60.8759C60.9017 10.7203 60.9272 10.7248 60.951 10.7337C60.9748 10.7426 60.9964 10.7556 61.0146 10.772C61.0328 10.7884 61.0472 10.8079 61.0571 10.8293C61.0669 10.8508 61.072 10.8737 61.072 10.8969C61.072 10.9201 61.0669 10.9431 61.0571 10.9645C61.0472 10.986 61.0328 11.0055 61.0146 11.0219C60.9964 11.0383 60.9748 11.0513 60.951 11.0602C60.9272 11.069 60.9017 11.0736 60.8759 11.0736Z" fill="#6C63FF"/>
<path d="M62.6408 12.4869H60.6799C60.6541 12.4869 60.6286 12.4824 60.6048 12.4735C60.581 12.4646 60.5594 12.4516 60.5412 12.4352C60.523 12.4188 60.5086 12.3993 60.4987 12.3779C60.4888 12.3564 60.4838 12.3335 60.4838 12.3103C60.4838 12.2871 60.4888 12.2641 60.4987 12.2427C60.5086 12.2212 60.523 12.2018 60.5412 12.1854C60.5594 12.1689 60.581 12.1559 60.6048 12.1471C60.6286 12.1382 60.6541 12.1336 60.6799 12.1336H62.6408C62.6665 12.1336 62.692 12.1382 62.7158 12.1471C62.7396 12.1559 62.7612 12.1689 62.7794 12.1854C62.7976 12.2018 62.8121 12.2212 62.8219 12.2427C62.8318 12.2641 62.8369 12.2871 62.8369 12.3103C62.8369 12.3335 62.8318 12.3564 62.8219 12.3779C62.8121 12.3993 62.7976 12.4188 62.7794 12.4352C62.7612 12.4516 62.7396 12.4646 62.7158 12.4735C62.692 12.4824 62.6665 12.4869 62.6408 12.4869Z" fill="#6C63FF"/>
<path d="M59.122 12.4869H55.3854C55.3334 12.4869 55.2835 12.4683 55.2468 12.4352C55.21 12.4021 55.1893 12.3571 55.1893 12.3103C55.1893 12.2634 55.21 12.2185 55.2468 12.1854C55.2835 12.1522 55.3334 12.1336 55.3854 12.1336H59.122C59.174 12.1336 59.2238 12.1522 59.2606 12.1854C59.2974 12.2185 59.318 12.2634 59.318 12.3103C59.318 12.3571 59.2974 12.4021 59.2606 12.4352C59.2238 12.4683 59.174 12.4869 59.122 12.4869Z" fill="#6C63FF"/>
<path d="M66.1812 11.0736H62.4447C62.3926 11.0736 62.3428 11.055 62.306 11.0219C62.2692 10.9887 62.2486 10.9438 62.2486 10.8969C62.2486 10.8501 62.2692 10.8052 62.306 10.772C62.3428 10.7389 62.3926 10.7203 62.4447 10.7203H66.1812C66.2069 10.7203 66.2324 10.7248 66.2562 10.7337C66.28 10.7426 66.3016 10.7556 66.3199 10.772C66.3381 10.7884 66.3525 10.8079 66.3624 10.8293C66.3722 10.8508 66.3773 10.8737 66.3773 10.8969C66.3773 10.9201 66.3722 10.9431 66.3624 10.9645C66.3525 10.986 66.3381 11.0055 66.3199 11.0219C66.3016 11.0383 66.28 11.0513 66.2562 11.0602C66.2324 11.069 66.2069 11.0736 66.1812 11.0736Z" fill="#6C63FF"/>
<path d="M58.6888 8.39725H54.9523C54.9265 8.39731 54.9009 8.39278 54.8771 8.38393C54.8532 8.37508 54.8315 8.36208 54.8133 8.34566C54.795 8.32925 54.7805 8.30976 54.7706 8.2883C54.7608 8.26683 54.7557 8.24382 54.7557 8.22058C54.7557 8.19734 54.7608 8.17433 54.7706 8.15287C54.7805 8.13141 54.795 8.11191 54.8133 8.0955C54.8315 8.07909 54.8532 8.06609 54.8771 8.05723C54.9009 8.04838 54.9265 8.04386 54.9523 8.04392H58.6888C58.7408 8.04392 58.7907 8.06253 58.8275 8.09566C58.8642 8.12879 58.8849 8.17373 58.8849 8.22058C58.8849 8.26744 58.8642 8.31237 58.8275 8.3455C58.7907 8.37864 58.7408 8.39725 58.6888 8.39725Z" fill="#6C63FF"/>
<path d="M58.996 9.42941C58.9594 9.42943 58.9237 9.41914 58.8939 9.39998C58.8641 9.38083 58.8417 9.35376 58.8298 9.32257C58.8179 9.29138 58.8172 9.25762 58.8276 9.22601C58.8381 9.19441 58.8592 9.16654 58.8881 9.1463L59.8449 8.47626C59.8834 8.44934 59.9152 8.41552 59.9384 8.37693C59.9615 8.33835 59.9756 8.29585 59.9796 8.25213C59.9836 8.20841 59.9774 8.16441 59.9616 8.12293C59.9457 8.08146 59.9205 8.0434 59.8874 8.01117L59.0842 7.22771C59.0685 7.21245 59.0563 7.19457 59.0484 7.17508C59.0404 7.15558 59.0367 7.13487 59.0376 7.11411C59.0386 7.09335 59.044 7.07295 59.0536 7.05408C59.0633 7.03522 59.077 7.01825 59.0939 7.00415C59.1109 6.99005 59.1307 6.97909 59.1524 6.9719C59.174 6.96471 59.197 6.96143 59.22 6.96225C59.2431 6.96307 59.2657 6.96797 59.2866 6.97667C59.3076 6.98537 59.3264 6.9977 59.3421 7.01296L60.5349 8.17634C60.5514 8.19243 60.5641 8.21144 60.572 8.23215C60.5799 8.25287 60.583 8.27484 60.581 8.29668C60.579 8.31852 60.572 8.33974 60.5604 8.35902C60.5489 8.37829 60.533 8.39518 60.5138 8.40863L59.1037 9.39612C59.0729 9.41772 59.035 9.42943 58.996 9.42941Z" fill="#6C63FF"/>
<path d="M54.7632 9.42941C54.7998 9.42943 54.8355 9.41914 54.8653 9.39998C54.8951 9.38083 54.9175 9.35376 54.9294 9.32257C54.9413 9.29138 54.942 9.25762 54.9316 9.22601C54.9211 9.19441 54.9 9.16654 54.8711 9.1463L53.9143 8.47626C53.8758 8.44934 53.844 8.41552 53.8208 8.37693C53.7977 8.33835 53.7836 8.29585 53.7796 8.25213C53.7756 8.20841 53.7818 8.16441 53.7976 8.12293C53.8135 8.08146 53.8387 8.0434 53.8718 8.01117L54.675 7.22771C54.6907 7.21245 54.7028 7.19457 54.7108 7.17508C54.7188 7.15558 54.7225 7.13487 54.7215 7.11411C54.7206 7.09335 54.7152 7.07295 54.7055 7.05408C54.6959 7.03522 54.6822 7.01825 54.6653 7.00415C54.6483 6.99005 54.6285 6.97909 54.6068 6.9719C54.5852 6.96471 54.5622 6.96143 54.5392 6.96225C54.5161 6.96307 54.4935 6.96797 54.4725 6.97667C54.4516 6.98537 54.4328 6.9977 54.4171 7.01296L53.2242 8.17634C53.2077 8.19243 53.1951 8.21144 53.1872 8.23215C53.1793 8.25287 53.1762 8.27484 53.1782 8.29668C53.1802 8.31852 53.1872 8.33974 53.1988 8.35902C53.2103 8.37829 53.2262 8.39518 53.2454 8.40863L54.6555 9.39612C54.6863 9.41772 54.7242 9.42943 54.7632 9.42941Z" fill="#6C63FF"/>
<path d="M60.6204 15.5166H56.8839C56.8319 15.5166 56.782 15.498 56.7452 15.4649C56.7085 15.4318 56.6878 15.3868 56.6878 15.34C56.6878 15.2931 56.7085 15.2482 56.7452 15.215C56.782 15.1819 56.8319 15.1633 56.8839 15.1633H60.6204C60.6724 15.1633 60.7223 15.1819 60.7591 15.215C60.7959 15.2482 60.8165 15.2931 60.8165 15.34C60.8165 15.3868 60.7959 15.4318 60.7591 15.4649C60.7223 15.498 60.6724 15.5166 60.6204 15.5166Z" fill="#6C63FF"/>
<path d="M61.2788 16.3906C61.2422 16.3906 61.2065 16.3803 61.1768 16.3611C61.147 16.342 61.1245 16.3149 61.1127 16.2837C61.1008 16.2525 61.1 16.2188 61.1105 16.1872C61.1209 16.1556 61.1421 16.1277 61.171 16.1074L62.1277 15.4374C62.1662 15.4105 62.198 15.3767 62.2212 15.3381C62.2444 15.2995 62.2584 15.257 62.2624 15.2133C62.2664 15.1696 62.2603 15.1256 62.2444 15.0841C62.2285 15.0426 62.2033 15.0045 62.1702 14.9723L61.367 14.1889C61.3513 14.1736 61.3392 14.1557 61.3312 14.1362C61.3232 14.1167 61.3196 14.096 61.3205 14.0753C61.3214 14.0545 61.3268 14.0341 61.3365 14.0152C61.3461 13.9964 61.3598 13.9794 61.3768 13.9653C61.3937 13.9512 61.4136 13.9402 61.4352 13.933C61.4568 13.9259 61.4798 13.9226 61.5029 13.9234C61.5259 13.9242 61.5485 13.9291 61.5695 13.9378C61.5904 13.9465 61.6093 13.9588 61.6249 13.9741L62.8178 15.1375C62.8343 15.1536 62.8469 15.1726 62.8548 15.1933C62.8628 15.214 62.8658 15.236 62.8638 15.2578C62.8618 15.2797 62.8548 15.3009 62.8433 15.3202C62.8317 15.3394 62.8158 15.3563 62.7966 15.3698L61.3865 16.3573C61.3558 16.3789 61.3179 16.3906 61.2788 16.3906Z" fill="#6C63FF"/>
<path d="M54.7632 16.3906C54.7998 16.3906 54.8355 16.3803 54.8653 16.3611C54.8951 16.342 54.9175 16.3149 54.9294 16.2837C54.9413 16.2525 54.942 16.2188 54.9316 16.1872C54.9211 16.1556 54.9 16.1277 54.8711 16.1074L53.9143 15.4374C53.8758 15.4105 53.844 15.3767 53.8208 15.3381C53.7977 15.2995 53.7836 15.257 53.7796 15.2133C53.7756 15.1696 53.7818 15.1256 53.7976 15.0841C53.8135 15.0426 53.8387 15.0045 53.8718 14.9723L54.675 14.1889C54.7066 14.158 54.7234 14.1172 54.7215 14.0753C54.7197 14.0333 54.6995 13.9938 54.6653 13.9653C54.6311 13.9368 54.5857 13.9218 54.5392 13.9234C54.4926 13.9251 54.4487 13.9433 54.4171 13.9741L53.2242 15.1375C53.2077 15.1536 53.1951 15.1726 53.1872 15.1933C53.1793 15.214 53.1762 15.236 53.1782 15.2578C53.1802 15.2797 53.1872 15.3009 53.1988 15.3202C53.2103 15.3394 53.2262 15.3563 53.2454 15.3698L54.6555 16.3573C54.6863 16.3789 54.7242 16.3906 54.7632 16.3906Z" fill="#6C63FF"/>
<path d="M55.0966 15.8956L55.8821 14.2768C55.903 14.2341 55.942 14.2006 55.9903 14.1837C56.0386 14.1667 56.0924 14.1677 56.1399 14.1865C56.1874 14.2052 56.2248 14.2401 56.2438 14.2835C56.2628 14.327 56.262 14.3755 56.2414 14.4184L55.456 16.0371C55.4457 16.0585 55.4309 16.0778 55.4124 16.094C55.3938 16.1102 55.3719 16.1229 55.3479 16.1315C55.3238 16.14 55.2982 16.1442 55.2724 16.1438C55.2465 16.1433 55.221 16.1383 55.1974 16.129C55.1737 16.1197 55.1523 16.1062 55.1344 16.0894C55.1166 16.0726 55.1025 16.0528 55.0932 16.0312C55.0838 16.0095 55.0793 15.9863 55.0799 15.9631C55.0805 15.9398 55.0862 15.9169 55.0966 15.8956Z" fill="#6C63FF"/>
</g>
<defs>
<clipPath id="clip0_2_97">
<rect width="93" height="53" fill="white"/>
</clipPath>
</defs>
</svg>
